<svg width="17" height="17" viewBox="0 0 17 17" fill="none" xmlns="http://www.w3.org/2000/svg">
<circle cx="8.5" cy="8.5" r="8.5" fill="#CB5959"/>
<path d="M10.892 6.072C10.892 6.34933 10.84 6.618 10.736 6.878C10.632 7.12933 10.4933 7.37633 10.32 7.619C10.1467 7.86167 9.95166 8.09567 9.73499 8.321C9.51833 8.54633 9.29733 8.763 9.07199 8.971C8.95933 9.075 8.82933 9.20067 8.68199 9.348C8.53466 9.48667 8.39599 9.634 8.26599 9.79C8.13599 9.93733 8.02333 10.089 7.92799 10.245C7.84133 10.401 7.79799 10.544 7.79799 10.674H11.256V12H6.00399C5.97799 11.9133 5.96499 11.805 5.96499 11.675C5.97366 11.545 5.97799 11.454 5.97799 11.402C5.97799 10.9687 6.05599 10.57 6.21199 10.206C6.37666 9.842 6.58033 9.50833 6.82299 9.205C7.07433 8.893 7.33866 8.607 7.61599 8.347C7.90199 8.07833 8.16633 7.82267 8.40899 7.58C8.66033 7.33733 8.86399 7.10333 9.01999 6.878C9.18466 6.65267 9.26699 6.423 9.26699 6.189C9.26699 5.85967 9.16733 5.60833 8.96799 5.435C8.76866 5.253 8.51733 5.162 8.21399 5.162C7.96266 5.162 7.69833 5.22267 7.42099 5.344C7.14366 5.46533 6.87066 5.669 6.60199 5.955L5.80899 4.837C6.15566 4.473 6.55433 4.20433 7.00499 4.031C7.46433 3.85767 7.91933 3.771 8.36999 3.771C8.69933 3.771 9.01566 3.81867 9.31899 3.914C9.62233 4.00933 9.89099 4.15233 10.125 4.343C10.359 4.53367 10.5453 4.77633 10.684 5.071C10.8227 5.357 10.892 5.69067 10.892 6.072Z" fill="white"/>
</svg>
