<svg width="25" height="25" viewBox="0 0 25 25" fill="none" xmlns="http://www.w3.org/2000/svg">
<path d="M2.60425 12.5C2.60425 7.83505 2.60425 5.50258 4.05346 4.05336C5.50267 2.60416 7.83514 2.60416 12.5001 2.60416C17.165 2.60416 19.4975 2.60416 20.9467 4.05336C22.3959 5.50258 22.3959 7.83505 22.3959 12.5C22.3959 17.1649 22.3959 19.4974 20.9467 20.9467C19.4975 22.3958 17.165 22.3958 12.5001 22.3958C7.83514 22.3958 5.50267 22.3958 4.05346 20.9467C2.60425 19.4974 2.60425 17.1649 2.60425 12.5Z" stroke="black" stroke-width="1.5" stroke-linejoin="round"/>
<path d="M17.1875 12.5C17.1875 15.0889 15.0889 17.1875 12.5 17.1875C9.91117 17.1875 7.8125 15.0889 7.8125 12.5C7.8125 9.91117 9.91117 7.8125 12.5 7.8125C15.0889 7.8125 17.1875 9.91117 17.1875 12.5Z" stroke="black" stroke-width="1.5"/>
<path d="M18.2365 6.77084H18.228" stroke="black" stroke-width="2" stroke-linecap="round" stroke-linejoin="round"/>
</svg>
