<svg width="25" height="25" viewBox="0 0 25 25" fill="none" xmlns="http://www.w3.org/2000/svg">
<path d="M7.8125 8.33334V6.6288C7.8125 4.11842 9.91117 2.08334 12.5 2.08334C15.0889 2.08334 17.1875 4.11842 17.1875 6.6288V8.33334" stroke="white" stroke-width="1.5"/>
<path d="M14.46 7.8125H10.54C6.48932 7.8125 4.92242 8.84162 3.80221 12.7472C2.79322 16.265 2.28873 18.0239 2.81619 19.3879C3.1392 20.2232 3.71271 20.9476 4.46407 21.4692C7.18169 23.3558 17.6943 23.442 20.536 21.4692C21.2873 20.9476 21.8609 20.2232 22.1839 19.3879C22.7113 18.0239 22.2068 16.265 21.1978 12.7472C20.1222 8.99711 18.6785 7.8125 14.46 7.8125Z" stroke="white" stroke-width="1.5"/>
<path d="M11.4583 11.4583H13.5416" stroke="white" stroke-width="1.5" stroke-linecap="round"/>
</svg>
