<svg width="25" height="25" viewBox="0 0 25 25" fill="none" xmlns="http://www.w3.org/2000/svg">
<path d="M7.8125 8.33334V6.6288C7.8125 4.11842 9.91117 2.08334 12.5 2.08334C15.0889 2.08334 17.1875 4.11842 17.1875 6.6288V8.33334" stroke="black" stroke-width="1.5"/>
<path d="M14.46 7.8125H10.54C6.48926 7.8125 4.92235 8.84162 3.80215 12.7472C2.79316 16.265 2.28867 18.0239 2.81613 19.3879C3.13914 20.2232 3.71265 20.9476 4.46401 21.4692C7.18163 23.3558 17.6942 23.442 20.5359 21.4692C21.2873 20.9476 21.8608 20.2232 22.1838 19.3879C22.7112 18.0239 22.2067 16.265 21.1978 12.7472C20.1221 8.99711 18.6784 7.8125 14.46 7.8125Z" stroke="black" stroke-width="1.5"/>
<path d="M11.4583 11.4583H13.5416" stroke="black" stroke-width="1.5" stroke-linecap="round"/>
</svg>
