<svg width="25" height="25" viewBox="0 0 25 25" fill="none" xmlns="http://www.w3.org/2000/svg">
<path d="M14.5833 11.1965V7.34672C14.5833 6.47943 14.4259 6.30507 13.562 6.30507L11.1141 6.25011C10.3521 6.25011 9.97107 6.25011 9.81707 6.49713C9.66307 6.74414 9.83345 7.08196 10.1742 7.75761C10.3635 8.13287 10.4647 8.40464 10.4647 8.82523V11.5953C10.4647 12.4714 10.4647 12.9094 10.1318 13.0393C9.799 13.1693 9.5224 12.8752 8.96919 12.2872C7.61328 10.8457 6.90759 9.04615 6.44368 7.08477C6.34761 6.67857 6.29956 6.47545 6.15618 6.36278C6.01278 6.25011 5.80856 6.25011 5.40012 6.25011H3.10921C2.60661 6.25011 2.3553 6.25011 2.19833 6.42782C2.04135 6.60551 2.07178 6.83219 2.13266 7.28553C2.68187 11.3757 6.27909 18.0828 12.9243 18.7226C14.1012 18.8359 14.5833 18.5178 14.5833 17.2282C14.5833 16.4973 14.5677 15.3155 15.4876 15.1606C15.9693 15.0796 16.2938 15.2506 16.8326 15.7026C17.7661 16.4854 18.2548 17.441 18.5954 18.1673C18.8214 18.6492 18.9894 18.75 19.5203 18.75H21.681C22.7726 18.75 23.07 18.4835 22.5838 17.4589C21.9681 16.1616 21.092 15.1309 20.2953 14.4448C19.6337 13.8749 19.3028 13.5899 19.2844 13.3802C19.2659 13.1704 19.5087 12.8735 19.9941 12.2797C20.932 11.1324 22.2085 9.33104 22.8043 7.41961C23.0995 6.47268 22.8218 6.25011 21.8624 6.25011H19.9217C18.9816 6.25011 18.9822 6.21758 18.7603 7.28416C18.4001 9.01486 17.2204 10.6782 16.1123 11.8106C15.5867 12.3478 15.2688 12.6714 14.9408 12.5395C14.6128 12.4077 14.5833 12.004 14.5833 11.1965Z" stroke="black" stroke-width="1.5" stroke-linecap="round" stroke-linejoin="round"/>
</svg>
