<svg width="25" height="25" viewBox="0 0 25 25" fill="none" xmlns="http://www.w3.org/2000/svg">
<path d="M14.5833 11.1965V7.34672C14.5833 6.47943 14.4259 6.30507 13.5621 6.30507L11.1141 6.25011C10.3521 6.25011 9.97113 6.25011 9.81713 6.49713C9.66313 6.74414 9.83351 7.08196 10.1743 7.75761C10.3636 8.13287 10.4648 8.40464 10.4648 8.82523V11.5953C10.4648 12.4714 10.4648 12.9094 10.1319 13.0393C9.79906 13.1693 9.52246 12.8752 8.96925 12.2872C7.61334 10.8457 6.90765 9.04615 6.44374 7.08477C6.34767 6.67857 6.29963 6.47545 6.15624 6.36278C6.01284 6.25011 5.80863 6.25011 5.40018 6.25011H3.10927C2.60667 6.25011 2.35537 6.25011 2.19839 6.42782C2.04141 6.60551 2.07184 6.83219 2.13272 7.28553C2.68193 11.3757 6.27915 18.0828 12.9244 18.7226C14.1012 18.8359 14.5833 18.5178 14.5833 17.2282C14.5833 16.4973 14.5678 15.3155 15.4877 15.1606C15.9694 15.0796 16.2938 15.2506 16.8327 15.7026C17.7661 16.4854 18.2549 17.441 18.5955 18.1673C18.8214 18.6492 18.9895 18.75 19.5204 18.75H21.681C22.7727 18.75 23.0701 18.4835 22.5838 17.4589C21.9682 16.1616 21.0921 15.1309 20.2954 14.4448C19.6337 13.8749 19.3029 13.5899 19.2845 13.3802C19.2659 13.1704 19.5087 12.8735 19.9941 12.2797C20.9321 11.1324 22.2085 9.33104 22.8044 7.41961C23.0996 6.47268 22.8219 6.25011 21.8625 6.25011H19.9218C18.9816 6.25011 18.9823 6.21758 18.7604 7.28416C18.4002 9.01486 17.2205 10.6782 16.1124 11.8106C15.5868 12.3478 15.2688 12.6714 14.9408 12.5395C14.6129 12.4077 14.5833 12.004 14.5833 11.1965Z" stroke="white" stroke-width="1.5" stroke-linecap="round" stroke-linejoin="round"/>
</svg>
